<svg xmlns="http://www.w3.org/2000/svg" viewBox="0 0 760 760" role="img" aria-label="SE fc2 β-half Frobenius norm, and the Glorot runs’ component orthogonal to their init"><style>.bg{fill:#FFFFFF}.t{fill:#5E6770;font:11px ui-monospace,Menlo,monospace}.tt{fill:#1C2126;font:600 12px ui-monospace,Menlo,monospace}.g{stroke:#E4E7EA;stroke-width:1}.z{stroke:#9AA3AB;stroke-width:1}.lr{stroke:#8C959D}.lrf{fill:#8C959D}@media (prefers-color-scheme:dark){.bg{fill:#14171A}.t{fill:#9AA3AB}.tt{fill:#E6E9EC}.g{stroke:#262B30}.z{stroke:#5E6770}.lr{stroke:#7A838B}.lrf{fill:#7A838B}}</style>
<rect class="bg" width="760" height="760"/>
<text class="tt" x="70" y="18">SE fc2 β-half Frobenius norm, and the Glorot runs’ component orthogonal to their init</text>
<line x1="70" y1="38" x2="96" y2="38" stroke="#B5532E" stroke-width="2.4"/>
<text class="t" x="102" y="42">Glorot-β ‖β‖ seed 1</text>
<line x1="255" y1="38" x2="281" y2="38" stroke="#B5532E" stroke-width="2.4" stroke-dasharray="6 4"/>
<text class="t" x="287" y="42">Glorot-β ‖β‖ seed 2</text>
<line x1="440" y1="38" x2="466" y2="38" stroke="#8A5AA8" stroke-width="2.4"/>
<text class="t" x="472" y="42">zero-β ‖β‖ seed 1</text>
<line x1="70" y1="56" x2="96" y2="56" stroke="#8A5AA8" stroke-width="2.4" stroke-dasharray="6 4"/>
<text class="t" x="102" y="60">zero-β ‖β‖ seed 2</text>
<line x1="241" y1="56" x2="267" y2="56" stroke="#C9A227" stroke-width="2.4"/>
<text class="t" x="273" y="60">Glorot-β learned part (⊥ init) seed 1</text>
<line x1="70" y1="74" x2="96" y2="74" stroke="#C9A227" stroke-width="2.4" stroke-dasharray="6 4"/>
<text class="t" x="102" y="78">Glorot-β learned part (⊥ init) seed 2</text>
<line class="g" x1="70" y1="236.0" x2="742" y2="236.0"/>
<text class="t" x="64" y="240.0" text-anchor="end">0</text>
<line class="g" x1="70" y1="186.6" x2="742" y2="186.6"/>
<text class="t" x="64" y="190.6" text-anchor="end">2</text>
<line class="g" x1="70" y1="137.2" x2="742" y2="137.2"/>
<text class="t" x="64" y="141.2" text-anchor="end">4</text>
<line class="g" x1="70.0" y1="94" x2="70.0" y2="244"/>
<line class="g" x1="162.1" y1="94" x2="162.1" y2="244"/>
<line class="g" x1="254.1" y1="94" x2="254.1" y2="244"/>
<line class="g" x1="346.2" y1="94" x2="346.2" y2="244"/>
<line class="g" x1="438.2" y1="94" x2="438.2" y2="244"/>
<line class="g" x1="530.3" y1="94" x2="530.3" y2="244"/>
<line class="g" x1="622.3" y1="94" x2="622.3" y2="244"/>
<line class="g" x1="714.4" y1="94" x2="714.4" y2="244"/>
<text class="t" transform="translate(14,169.0) rotate(-90)" text-anchor="middle">block 0 β norm</text>
<path d="M70.0,105.4 L162.1,106.1 L254.1,108.4 L346.2,110.4 L438.2,111.9 L530.3,112.6 L622.3,113.0 L714.4,113.2" fill="none" stroke="#B5532E" stroke-width="2"/>
<circle cx="70.0" cy="105.4" r="2.6" fill="#B5532E"/>
<circle cx="162.1" cy="106.1" r="2.6" fill="#B5532E"/>
<circle cx="254.1" cy="108.4" r="2.6" fill="#B5532E"/>
<circle cx="346.2" cy="110.4" r="2.6" fill="#B5532E"/>
<circle cx="438.2" cy="111.9" r="2.6" fill="#B5532E"/>
<circle cx="530.3" cy="112.6" r="2.6" fill="#B5532E"/>
<circle cx="622.3" cy="113.0" r="2.6" fill="#B5532E"/>
<circle cx="714.4" cy="113.2" r="2.6" fill="#B5532E"/>
<path d="M70.0,102.0 L162.1,103.5 L254.1,106.4 L346.2,108.7 L438.2,110.2 L530.3,111.0 L622.3,111.4 L714.4,111.6 L740.3,111.7" fill="none" stroke="#B5532E" stroke-width="2" stroke-dasharray="6 4"/>
<circle cx="70.0" cy="102.0" r="2.6" fill="#B5532E"/>
<circle cx="162.1" cy="103.5" r="2.6" fill="#B5532E"/>
<circle cx="254.1" cy="106.4" r="2.6" fill="#B5532E"/>
<circle cx="346.2" cy="108.7" r="2.6" fill="#B5532E"/>
<circle cx="438.2" cy="110.2" r="2.6" fill="#B5532E"/>
<circle cx="530.3" cy="111.0" r="2.6" fill="#B5532E"/>
<circle cx="622.3" cy="111.4" r="2.6" fill="#B5532E"/>
<circle cx="714.4" cy="111.6" r="2.6" fill="#B5532E"/>
<circle cx="740.3" cy="111.7" r="2.6" fill="#B5532E"/>
<path d="M70.0,236.0 L162.1,215.1 L254.1,207.5 L346.2,204.4 L438.2,202.9 L530.3,202.3 L533.0,202.3" fill="none" stroke="#8A5AA8" stroke-width="2"/>
<circle cx="70.0" cy="236.0" r="2.6" fill="#8A5AA8"/>
<circle cx="162.1" cy="215.1" r="2.6" fill="#8A5AA8"/>
<circle cx="254.1" cy="207.5" r="2.6" fill="#8A5AA8"/>
<circle cx="346.2" cy="204.4" r="2.6" fill="#8A5AA8"/>
<circle cx="438.2" cy="202.9" r="2.6" fill="#8A5AA8"/>
<circle cx="530.3" cy="202.3" r="2.6" fill="#8A5AA8"/>
<circle cx="533.0" cy="202.3" r="2.6" fill="#8A5AA8"/>
<path d="M70.0,236.0 L162.1,217.6 L254.1,210.1 L346.2,207.2 L438.2,205.6 L530.3,204.7 L530.6,204.7" fill="none" stroke="#8A5AA8" stroke-width="2" stroke-dasharray="6 4"/>
<circle cx="70.0" cy="236.0" r="2.6" fill="#8A5AA8"/>
<circle cx="162.1" cy="217.6" r="2.6" fill="#8A5AA8"/>
<circle cx="254.1" cy="210.1" r="2.6" fill="#8A5AA8"/>
<circle cx="346.2" cy="207.2" r="2.6" fill="#8A5AA8"/>
<circle cx="438.2" cy="205.6" r="2.6" fill="#8A5AA8"/>
<circle cx="530.3" cy="204.7" r="2.6" fill="#8A5AA8"/>
<circle cx="530.6" cy="204.7" r="2.6" fill="#8A5AA8"/>
<path d="M70.0,236.0 L162.1,216.3 L254.1,209.0 L346.2,205.6 L438.2,203.9 L530.3,202.9 L622.3,202.5 L714.4,202.3" fill="none" stroke="#C9A227" stroke-width="2"/>
<circle cx="70.0" cy="236.0" r="2.6" fill="#C9A227"/>
<circle cx="162.1" cy="216.3" r="2.6" fill="#C9A227"/>
<circle cx="254.1" cy="209.0" r="2.6" fill="#C9A227"/>
<circle cx="346.2" cy="205.6" r="2.6" fill="#C9A227"/>
<circle cx="438.2" cy="203.9" r="2.6" fill="#C9A227"/>
<circle cx="530.3" cy="202.9" r="2.6" fill="#C9A227"/>
<circle cx="622.3" cy="202.5" r="2.6" fill="#C9A227"/>
<circle cx="714.4" cy="202.3" r="2.6" fill="#C9A227"/>
<path d="M70.0,236.0 L162.1,219.3 L254.1,211.8 L346.2,208.4 L438.2,206.6 L530.3,205.6 L622.3,205.3 L714.4,205.1 L740.3,205.0" fill="none" stroke="#C9A227" stroke-width="2" stroke-dasharray="6 4"/>
<circle cx="70.0" cy="236.0" r="2.6" fill="#C9A227"/>
<circle cx="162.1" cy="219.3" r="2.6" fill="#C9A227"/>
<circle cx="254.1" cy="211.8" r="2.6" fill="#C9A227"/>
<circle cx="346.2" cy="208.4" r="2.6" fill="#C9A227"/>
<circle cx="438.2" cy="206.6" r="2.6" fill="#C9A227"/>
<circle cx="530.3" cy="205.6" r="2.6" fill="#C9A227"/>
<circle cx="622.3" cy="205.3" r="2.6" fill="#C9A227"/>
<circle cx="714.4" cy="205.1" r="2.6" fill="#C9A227"/>
<circle cx="740.3" cy="205.0" r="2.6" fill="#C9A227"/>
<line class="g" x1="70" y1="420.0" x2="742" y2="420.0"/>
<text class="t" x="64" y="424.0" text-anchor="end">0</text>
<line class="g" x1="70" y1="370.3" x2="742" y2="370.3"/>
<text class="t" x="64" y="374.3" text-anchor="end">2</text>
<line class="g" x1="70" y1="320.6" x2="742" y2="320.6"/>
<text class="t" x="64" y="324.6" text-anchor="end">4</text>
<line class="g" x1="70.0" y1="278" x2="70.0" y2="428"/>
<line class="g" x1="162.1" y1="278" x2="162.1" y2="428"/>
<line class="g" x1="254.1" y1="278" x2="254.1" y2="428"/>
<line class="g" x1="346.2" y1="278" x2="346.2" y2="428"/>
<line class="g" x1="438.2" y1="278" x2="438.2" y2="428"/>
<line class="g" x1="530.3" y1="278" x2="530.3" y2="428"/>
<line class="g" x1="622.3" y1="278" x2="622.3" y2="428"/>
<line class="g" x1="714.4" y1="278" x2="714.4" y2="428"/>
<text class="t" transform="translate(14,353.0) rotate(-90)" text-anchor="middle">block 1 β norm</text>
<path d="M70.0,287.9 L162.1,290.4 L254.1,294.3 L346.2,297.2 L438.2,299.1 L530.3,300.1 L622.3,300.6 L714.4,300.8" fill="none" stroke="#B5532E" stroke-width="2"/>
<circle cx="70.0" cy="287.9" r="2.6" fill="#B5532E"/>
<circle cx="162.1" cy="290.4" r="2.6" fill="#B5532E"/>
<circle cx="254.1" cy="294.3" r="2.6" fill="#B5532E"/>
<circle cx="346.2" cy="297.2" r="2.6" fill="#B5532E"/>
<circle cx="438.2" cy="299.1" r="2.6" fill="#B5532E"/>
<circle cx="530.3" cy="300.1" r="2.6" fill="#B5532E"/>
<circle cx="622.3" cy="300.6" r="2.6" fill="#B5532E"/>
<circle cx="714.4" cy="300.8" r="2.6" fill="#B5532E"/>
<path d="M70.0,286.0 L162.1,289.0 L254.1,293.0 L346.2,296.0 L438.2,297.8 L530.3,298.8 L622.3,299.3 L714.4,299.6 L740.3,299.6" fill="none" stroke="#B5532E" stroke-width="2" stroke-dasharray="6 4"/>
<circle cx="70.0" cy="286.0" r="2.6" fill="#B5532E"/>
<circle cx="162.1" cy="289.0" r="2.6" fill="#B5532E"/>
<circle cx="254.1" cy="293.0" r="2.6" fill="#B5532E"/>
<circle cx="346.2" cy="296.0" r="2.6" fill="#B5532E"/>
<circle cx="438.2" cy="297.8" r="2.6" fill="#B5532E"/>
<circle cx="530.3" cy="298.8" r="2.6" fill="#B5532E"/>
<circle cx="622.3" cy="299.3" r="2.6" fill="#B5532E"/>
<circle cx="714.4" cy="299.6" r="2.6" fill="#B5532E"/>
<circle cx="740.3" cy="299.6" r="2.6" fill="#B5532E"/>
<path d="M70.0,420.0 L162.1,412.1 L254.1,408.6 L346.2,406.5 L438.2,404.9 L530.3,404.1 L533.0,404.1" fill="none" stroke="#8A5AA8" stroke-width="2"/>
<circle cx="70.0" cy="420.0" r="2.6" fill="#8A5AA8"/>
<circle cx="162.1" cy="412.1" r="2.6" fill="#8A5AA8"/>
<circle cx="254.1" cy="408.6" r="2.6" fill="#8A5AA8"/>
<circle cx="346.2" cy="406.5" r="2.6" fill="#8A5AA8"/>
<circle cx="438.2" cy="404.9" r="2.6" fill="#8A5AA8"/>
<circle cx="530.3" cy="404.1" r="2.6" fill="#8A5AA8"/>
<circle cx="533.0" cy="404.1" r="2.6" fill="#8A5AA8"/>
<path d="M70.0,420.0 L162.1,407.4 L254.1,402.7 L346.2,400.5 L438.2,399.1 L530.3,398.2 L530.6,398.2" fill="none" stroke="#8A5AA8" stroke-width="2" stroke-dasharray="6 4"/>
<circle cx="70.0" cy="420.0" r="2.6" fill="#8A5AA8"/>
<circle cx="162.1" cy="407.4" r="2.6" fill="#8A5AA8"/>
<circle cx="254.1" cy="402.7" r="2.6" fill="#8A5AA8"/>
<circle cx="346.2" cy="400.5" r="2.6" fill="#8A5AA8"/>
<circle cx="438.2" cy="399.1" r="2.6" fill="#8A5AA8"/>
<circle cx="530.3" cy="398.2" r="2.6" fill="#8A5AA8"/>
<circle cx="530.6" cy="398.2" r="2.6" fill="#8A5AA8"/>
<path d="M70.0,420.0 L162.1,412.6 L254.1,409.7 L346.2,407.7 L438.2,406.2 L530.3,405.5 L622.3,405.2 L714.4,405.1" fill="none" stroke="#C9A227" stroke-width="2"/>
<circle cx="70.0" cy="420.0" r="2.6" fill="#C9A227"/>
<circle cx="162.1" cy="412.6" r="2.6" fill="#C9A227"/>
<circle cx="254.1" cy="409.7" r="2.6" fill="#C9A227"/>
<circle cx="346.2" cy="407.7" r="2.6" fill="#C9A227"/>
<circle cx="438.2" cy="406.2" r="2.6" fill="#C9A227"/>
<circle cx="530.3" cy="405.5" r="2.6" fill="#C9A227"/>
<circle cx="622.3" cy="405.2" r="2.6" fill="#C9A227"/>
<circle cx="714.4" cy="405.1" r="2.6" fill="#C9A227"/>
<path d="M70.0,420.0 L162.1,409.9 L254.1,406.4 L346.2,404.8 L438.2,403.5 L530.3,402.7 L622.3,402.3 L714.4,402.0 L740.3,402.0" fill="none" stroke="#C9A227" stroke-width="2" stroke-dasharray="6 4"/>
<circle cx="70.0" cy="420.0" r="2.6" fill="#C9A227"/>
<circle cx="162.1" cy="409.9" r="2.6" fill="#C9A227"/>
<circle cx="254.1" cy="406.4" r="2.6" fill="#C9A227"/>
<circle cx="346.2" cy="404.8" r="2.6" fill="#C9A227"/>
<circle cx="438.2" cy="403.5" r="2.6" fill="#C9A227"/>
<circle cx="530.3" cy="402.7" r="2.6" fill="#C9A227"/>
<circle cx="622.3" cy="402.3" r="2.6" fill="#C9A227"/>
<circle cx="714.4" cy="402.0" r="2.6" fill="#C9A227"/>
<circle cx="740.3" cy="402.0" r="2.6" fill="#C9A227"/>
<line class="g" x1="70" y1="604.0" x2="742" y2="604.0"/>
<text class="t" x="64" y="608.0" text-anchor="end">0</text>
<line class="g" x1="70" y1="553.3" x2="742" y2="553.3"/>
<text class="t" x="64" y="557.3" text-anchor="end">2</text>
<line class="g" x1="70" y1="502.6" x2="742" y2="502.6"/>
<text class="t" x="64" y="506.6" text-anchor="end">4</text>
<line class="g" x1="70.0" y1="462" x2="70.0" y2="612"/>
<line class="g" x1="162.1" y1="462" x2="162.1" y2="612"/>
<line class="g" x1="254.1" y1="462" x2="254.1" y2="612"/>
<line class="g" x1="346.2" y1="462" x2="346.2" y2="612"/>
<line class="g" x1="438.2" y1="462" x2="438.2" y2="612"/>
<line class="g" x1="530.3" y1="462" x2="530.3" y2="612"/>
<line class="g" x1="622.3" y1="462" x2="622.3" y2="612"/>
<line class="g" x1="714.4" y1="462" x2="714.4" y2="612"/>
<text class="t" transform="translate(14,537.0) rotate(-90)" text-anchor="middle">block 2 β norm</text>
<path d="M70.0,470.0 L162.1,472.8 L254.1,476.8 L346.2,479.6 L438.2,481.3 L530.3,482.1 L622.3,482.6 L714.4,482.8" fill="none" stroke="#B5532E" stroke-width="2"/>
<circle cx="70.0" cy="470.0" r="2.6" fill="#B5532E"/>
<circle cx="162.1" cy="472.8" r="2.6" fill="#B5532E"/>
<circle cx="254.1" cy="476.8" r="2.6" fill="#B5532E"/>
<circle cx="346.2" cy="479.6" r="2.6" fill="#B5532E"/>
<circle cx="438.2" cy="481.3" r="2.6" fill="#B5532E"/>
<circle cx="530.3" cy="482.1" r="2.6" fill="#B5532E"/>
<circle cx="622.3" cy="482.6" r="2.6" fill="#B5532E"/>
<circle cx="714.4" cy="482.8" r="2.6" fill="#B5532E"/>
<path d="M70.0,470.4 L162.1,473.3 L254.1,477.1 L346.2,479.9 L438.2,481.6 L530.3,482.4 L622.3,482.9 L714.4,483.1 L740.3,483.1" fill="none" stroke="#B5532E" stroke-width="2" stroke-dasharray="6 4"/>
<circle cx="70.0" cy="470.4" r="2.6" fill="#B5532E"/>
<circle cx="162.1" cy="473.3" r="2.6" fill="#B5532E"/>
<circle cx="254.1" cy="477.1" r="2.6" fill="#B5532E"/>
<circle cx="346.2" cy="479.9" r="2.6" fill="#B5532E"/>
<circle cx="438.2" cy="481.6" r="2.6" fill="#B5532E"/>
<circle cx="530.3" cy="482.4" r="2.6" fill="#B5532E"/>
<circle cx="622.3" cy="482.9" r="2.6" fill="#B5532E"/>
<circle cx="714.4" cy="483.1" r="2.6" fill="#B5532E"/>
<circle cx="740.3" cy="483.1" r="2.6" fill="#B5532E"/>
<path d="M70.0,604.0 L162.1,589.8 L254.1,583.5 L346.2,580.9 L438.2,579.5 L530.3,578.6 L533.0,578.6" fill="none" stroke="#8A5AA8" stroke-width="2"/>
<circle cx="70.0" cy="604.0" r="2.6" fill="#8A5AA8"/>
<circle cx="162.1" cy="589.8" r="2.6" fill="#8A5AA8"/>
<circle cx="254.1" cy="583.5" r="2.6" fill="#8A5AA8"/>
<circle cx="346.2" cy="580.9" r="2.6" fill="#8A5AA8"/>
<circle cx="438.2" cy="579.5" r="2.6" fill="#8A5AA8"/>
<circle cx="530.3" cy="578.6" r="2.6" fill="#8A5AA8"/>
<circle cx="533.0" cy="578.6" r="2.6" fill="#8A5AA8"/>
<path d="M70.0,604.0 L162.1,591.7 L254.1,585.8 L346.2,583.3 L438.2,581.8 L530.3,580.9 L530.6,580.9" fill="none" stroke="#8A5AA8" stroke-width="2" stroke-dasharray="6 4"/>
<circle cx="70.0" cy="604.0" r="2.6" fill="#8A5AA8"/>
<circle cx="162.1" cy="591.7" r="2.6" fill="#8A5AA8"/>
<circle cx="254.1" cy="585.8" r="2.6" fill="#8A5AA8"/>
<circle cx="346.2" cy="583.3" r="2.6" fill="#8A5AA8"/>
<circle cx="438.2" cy="581.8" r="2.6" fill="#8A5AA8"/>
<circle cx="530.3" cy="580.9" r="2.6" fill="#8A5AA8"/>
<circle cx="530.6" cy="580.9" r="2.6" fill="#8A5AA8"/>
<path d="M70.0,604.0 L162.1,593.8 L254.1,588.7 L346.2,585.6 L438.2,583.5 L530.3,582.3 L622.3,581.8 L714.4,581.6" fill="none" stroke="#C9A227" stroke-width="2"/>
<circle cx="70.0" cy="604.0" r="2.6" fill="#C9A227"/>
<circle cx="162.1" cy="593.8" r="2.6" fill="#C9A227"/>
<circle cx="254.1" cy="588.7" r="2.6" fill="#C9A227"/>
<circle cx="346.2" cy="585.6" r="2.6" fill="#C9A227"/>
<circle cx="438.2" cy="583.5" r="2.6" fill="#C9A227"/>
<circle cx="530.3" cy="582.3" r="2.6" fill="#C9A227"/>
<circle cx="622.3" cy="581.8" r="2.6" fill="#C9A227"/>
<circle cx="714.4" cy="581.6" r="2.6" fill="#C9A227"/>
<path d="M70.0,604.0 L162.1,591.3 L254.1,585.6 L346.2,583.4 L438.2,581.7 L530.3,580.8 L622.3,580.4 L714.4,580.1 L740.3,580.0" fill="none" stroke="#C9A227" stroke-width="2" stroke-dasharray="6 4"/>
<circle cx="70.0" cy="604.0" r="2.6" fill="#C9A227"/>
<circle cx="162.1" cy="591.3" r="2.6" fill="#C9A227"/>
<circle cx="254.1" cy="585.6" r="2.6" fill="#C9A227"/>
<circle cx="346.2" cy="583.4" r="2.6" fill="#C9A227"/>
<circle cx="438.2" cy="581.7" r="2.6" fill="#C9A227"/>
<circle cx="530.3" cy="580.8" r="2.6" fill="#C9A227"/>
<circle cx="622.3" cy="580.4" r="2.6" fill="#C9A227"/>
<circle cx="714.4" cy="580.1" r="2.6" fill="#C9A227"/>
<circle cx="740.3" cy="580.0" r="2.6" fill="#C9A227"/>
<line class="g" x1="70" y1="716.0" x2="742" y2="716.0"/>
<text class="t" x="64" y="720.0" text-anchor="end">0.0001</text>
<line class="g" x1="70" y1="692.7" x2="742" y2="692.7"/>
<text class="t" x="64" y="696.7" text-anchor="end">0.001</text>
<line class="g" x1="70" y1="669.3" x2="742" y2="669.3"/>
<text class="t" x="64" y="673.3" text-anchor="end">0.01</text>
<line class="g" x1="70" y1="646.0" x2="742" y2="646.0"/>
<text class="t" x="64" y="650.0" text-anchor="end">0.1</text>
<line class="g" x1="70.0" y1="646" x2="70.0" y2="716"/>
<line class="g" x1="162.1" y1="646" x2="162.1" y2="716"/>
<line class="g" x1="254.1" y1="646" x2="254.1" y2="716"/>
<line class="g" x1="346.2" y1="646" x2="346.2" y2="716"/>
<line class="g" x1="438.2" y1="646" x2="438.2" y2="716"/>
<line class="g" x1="530.3" y1="646" x2="530.3" y2="716"/>
<line class="g" x1="622.3" y1="646" x2="622.3" y2="716"/>
<line class="g" x1="714.4" y1="646" x2="714.4" y2="716"/>
<text class="t" transform="translate(14,681.0) rotate(-90)" text-anchor="middle">LR (log)</text>
<path class="lr" d="M70.1,716.0 L74.6,676.4 L79.2,669.3 L83.8,665.2 L88.4,662.3 L93.0,660.0 L97.6,658.2 L102.2,656.6 L106.8,655.3 L111.4,654.1 L116.0,653.0 L120.6,652.1 L125.2,651.2 L129.8,650.4 L134.4,649.6 L139.0,648.9 L143.6,648.3 L148.2,647.6 L152.8,647.1 L157.5,646.5 L162.1,646.0 L166.7,646.0 L171.3,646.0 L175.9,646.0 L180.5,646.1 L185.1,646.1 L189.7,646.1 L194.3,646.2 L198.9,646.2 L203.5,646.3 L208.1,646.3 L212.7,646.4 L217.3,646.5 L221.9,646.5 L226.5,646.6 L231.1,646.7 L235.7,646.8 L240.3,646.9 L244.9,647.0 L249.5,647.1 L254.1,647.2 L258.7,647.3 L263.3,647.5 L267.9,647.6 L272.5,647.7 L277.1,647.9 L281.7,648.0 L286.3,648.2 L290.9,648.3 L295.5,648.5 L300.1,648.6 L304.7,648.8 L309.3,649.0 L313.9,649.2 L318.5,649.4 L323.2,649.6 L327.8,649.8 L332.4,650.0 L337.0,650.2 L341.6,650.4 L346.2,650.6 L350.8,650.8 L355.4,651.0 L360.0,651.3 L364.6,651.5 L369.2,651.7 L373.8,652.0 L378.4,652.2 L383.0,652.5 L387.6,652.7 L392.2,653.0 L396.8,653.3 L401.4,653.5 L406.0,653.8 L410.6,654.1 L415.2,654.4 L419.8,654.6 L424.4,654.9 L429.0,655.2 L433.6,655.5 L438.2,655.8 L442.8,656.1 L447.4,656.4 L452.0,656.8 L456.6,657.1 L461.2,657.4 L465.8,657.7 L470.4,658.0 L475.0,658.3 L479.6,658.6 L484.2,659.0 L488.8,659.3 L493.5,659.7 L498.1,660.0 L502.7,660.3 L507.3,660.7 L511.9,661.0 L516.5,661.3 L521.1,661.7 L525.7,662.1 L530.3,662.4 L534.9,662.8 L539.5,663.1 L544.1,663.5 L548.7,663.8 L553.3,664.2 L557.9,664.6 L562.5,664.9 L567.1,665.3 L571.7,665.6 L576.3,666.0 L580.9,666.4 L585.5,666.8 L590.1,667.1 L594.7,667.5 L599.3,667.8 L603.9,668.2 L608.5,668.6 L613.1,668.9 L617.7,669.3 L622.3,669.7 L626.9,670.1 L631.5,670.4 L636.1,670.8 L640.7,671.2 L645.3,671.5 L649.9,671.9 L654.5,672.3 L659.2,672.6 L663.8,673.0 L668.4,673.4 L673.0,673.7 L677.6,674.1 L682.2,674.5 L686.8,674.8 L691.4,675.2 L696.0,675.5 L700.6,675.9 L705.2,676.3 L709.8,676.6 L714.4,677.0 L719.0,677.3 L723.6,677.7 L728.2,678.0 L732.8,678.4 L737.4,678.7 L742.0,679.0" fill="none" stroke-width="1.6"/>
<text class="t" x="70.0" y="732" text-anchor="middle">0</text>
<text class="t" x="162.1" y="732" text-anchor="middle">1k</text>
<text class="t" x="254.1" y="732" text-anchor="middle">2k</text>
<text class="t" x="346.2" y="732" text-anchor="middle">3k</text>
<text class="t" x="438.2" y="732" text-anchor="middle">4k</text>
<text class="t" x="530.3" y="732" text-anchor="middle">5k</text>
<text class="t" x="622.3" y="732" text-anchor="middle">6k</text>
<text class="t" x="714.4" y="732" text-anchor="middle">7k</text>
<text class="t" x="406.0" y="750" text-anchor="middle">training step</text>
</svg>
